<svg width="68" height="70" viewBox="0 0 68 70" fill="none" xmlns="http://www.w3.org/2000/svg">
<path fill-rule="evenodd" clip-rule="evenodd" d="M37.7469 0.0141337C53.173 0.459142 63.2224 14.0232 67.1239 28.0487C70.324 39.5523 63.7601 50.4321 53.8197 57.7936C42.1205 66.4577 27.0642 74.6027 14.5875 66.9553C0.656955 58.4169 -2.90433 41.0361 2.23649 26.1768C7.37666 11.3194 21.1228 -0.465435 37.7469 0.0141337Z" fill="#DB5F4D"/>
<path d="M41.288 44.824V47H29V44.824H33.912V29.192C33.912 28.7227 33.928 28.248 33.96 27.768L29.88 31.272C29.7413 31.3893 29.6027 31.464 29.464 31.496C29.3253 31.5173 29.1973 31.5173 29.08 31.496C28.9627 31.4747 28.8507 31.432 28.744 31.368C28.648 31.304 28.5733 31.2347 28.52 31.16L27.624 29.928L34.456 24.024H36.776V44.824H41.288Z" fill="white"/>
</svg>
