<svg width="68" height="70" viewBox="0 0 68 70" fill="none" xmlns="http://www.w3.org/2000/svg">
<path fill-rule="evenodd" clip-rule="evenodd" d="M37.7469 0.0141337C53.173 0.459142 63.2224 14.0232 67.1239 28.0487C70.324 39.5523 63.7601 50.4321 53.8197 57.7936C42.1205 66.4577 27.0642 74.6027 14.5875 66.9553C0.656955 58.4169 -2.90433 41.0361 2.23649 26.1768C7.37666 11.3194 21.1228 -0.465435 37.7469 0.0141337Z" fill="#DB5F4D"/>
<path d="M27.08 30.28C27.2293 29.2347 27.5173 28.312 27.944 27.512C28.3707 26.7013 28.9093 26.024 29.56 25.48C30.2213 24.936 30.9733 24.5253 31.816 24.248C32.6693 23.96 33.5867 23.816 34.568 23.816C35.5387 23.816 36.4347 23.9547 37.256 24.232C38.0773 24.5093 38.7813 24.904 39.368 25.416C39.9653 25.928 40.4293 26.5467 40.76 27.272C41.0907 27.9973 41.256 28.8027 41.256 29.688C41.256 30.4133 41.16 31.064 40.968 31.64C40.7867 32.2053 40.52 32.7013 40.168 33.128C39.8267 33.5547 39.4107 33.9173 38.92 34.216C38.4293 34.5147 37.88 34.76 37.272 34.952C38.7653 35.336 39.8853 35.9973 40.632 36.936C41.3893 37.864 41.768 39.0267 41.768 40.424C41.768 41.48 41.5653 42.4293 41.16 43.272C40.7653 44.1147 40.2213 44.8347 39.528 45.432C38.8347 46.0187 38.024 46.472 37.096 46.792C36.1787 47.1013 35.192 47.256 34.136 47.256C32.92 47.256 31.88 47.1067 31.016 46.808C30.152 46.4987 29.4213 46.0773 28.824 45.544C28.2267 45.0107 27.736 44.3813 27.352 43.656C26.968 42.92 26.6427 42.1253 26.376 41.272L27.608 40.76C27.928 40.6213 28.2373 40.584 28.536 40.648C28.8453 40.712 29.0693 40.888 29.208 41.176C29.3467 41.4747 29.5173 41.832 29.72 42.248C29.9333 42.664 30.2213 43.064 30.584 43.448C30.9467 43.832 31.4053 44.1573 31.96 44.424C32.5253 44.6907 33.24 44.824 34.104 44.824C34.904 44.824 35.6027 44.696 36.2 44.44C36.808 44.1733 37.3093 43.832 37.704 43.416C38.1093 43 38.4133 42.536 38.616 42.024C38.8187 41.512 38.92 41.0053 38.92 40.504C38.92 39.8853 38.84 39.32 38.68 38.808C38.52 38.296 38.2213 37.8533 37.784 37.48C37.3467 37.1067 36.744 36.8133 35.976 36.6C35.2187 36.3867 34.2427 36.28 33.048 36.28V34.216C34.0293 34.2053 34.8613 34.0987 35.544 33.896C36.2373 33.6933 36.7973 33.416 37.224 33.064C37.6613 32.712 37.976 32.2907 38.168 31.8C38.3707 31.3093 38.472 30.7653 38.472 30.168C38.472 29.5067 38.3653 28.9307 38.152 28.44C37.9493 27.9493 37.6667 27.544 37.304 27.224C36.9413 26.904 36.5093 26.664 36.008 26.504C35.5173 26.344 34.984 26.264 34.408 26.264C33.832 26.264 33.2933 26.3493 32.792 26.52C32.3013 26.6907 31.864 26.9307 31.48 27.24C31.1067 27.5387 30.792 27.896 30.536 28.312C30.28 28.728 30.0987 29.1867 29.992 29.688C29.8533 30.0613 29.6773 30.312 29.464 30.44C29.2613 30.5573 28.9627 30.5893 28.568 30.536L27.08 30.28Z" fill="white"/>
</svg>
