<svg width="68" height="70" viewBox="0 0 68 70" fill="none" xmlns="http://www.w3.org/2000/svg">
<path fill-rule="evenodd" clip-rule="evenodd" d="M37.7469 0.0141337C53.173 0.459142 63.2224 14.0232 67.1239 28.0487C70.324 39.5523 63.7601 50.4321 53.8197 57.7936C42.1205 66.4577 27.0642 74.6027 14.5875 66.9553C0.656955 58.4169 -2.90433 41.0361 2.23649 26.1768C7.37666 11.3194 21.1228 -0.465435 37.7469 0.0141337Z" fill="#DB5F4D"/>
<path d="M40.792 44.296C41.1013 44.296 41.3467 44.3867 41.528 44.568C41.7093 44.7493 41.8 44.984 41.8 45.272V47H26.504V46.024C26.504 45.8213 26.5467 45.6133 26.632 45.4C26.7173 45.1867 26.8507 44.9893 27.032 44.808L34.376 37.432C34.984 36.8133 35.5387 36.2213 36.04 35.656C36.5413 35.08 36.968 34.504 37.32 33.928C37.672 33.352 37.944 32.7707 38.136 32.184C38.328 31.5867 38.424 30.952 38.424 30.28C38.424 29.608 38.3173 29.0213 38.104 28.52C37.8907 28.008 37.5973 27.5867 37.224 27.256C36.8613 26.9253 36.4293 26.68 35.928 26.52C35.4267 26.3493 34.888 26.264 34.312 26.264C33.7253 26.264 33.1867 26.3493 32.696 26.52C32.2053 26.6907 31.768 26.9307 31.384 27.24C31.0107 27.5387 30.696 27.896 30.44 28.312C30.184 28.728 30.0027 29.1867 29.896 29.688C29.768 30.0613 29.592 30.312 29.368 30.44C29.1547 30.5573 28.8507 30.5893 28.456 30.536L26.968 30.28C27.1173 29.2347 27.4053 28.312 27.832 27.512C28.2693 26.7013 28.8133 26.024 29.464 25.48C30.1253 24.936 30.8773 24.5253 31.72 24.248C32.5627 23.96 33.4747 23.816 34.456 23.816C35.4267 23.816 36.3333 23.96 37.176 24.248C38.0187 24.536 38.7493 24.9573 39.368 25.512C39.9867 26.056 40.472 26.7227 40.824 27.512C41.176 28.3013 41.352 29.1973 41.352 30.2C41.352 31.0533 41.224 31.848 40.968 32.584C40.712 33.3093 40.3653 34.0027 39.928 34.664C39.4907 35.3253 38.984 35.9707 38.408 36.6C37.8427 37.2293 37.24 37.864 36.6 38.504L30.552 44.68C30.9787 44.5627 31.4107 44.472 31.848 44.408C32.2853 44.3333 32.7067 44.296 33.112 44.296H40.792Z" fill="white"/>
</svg>
