<svg width="42" height="34" viewBox="0 0 42 34" fill="none" xmlns="http://www.w3.org/2000/svg">
<path d="M2.69378 15.5423L18.3921 2.83477C19.0596 2.29467 19.8923 2 20.751 2C21.6096 2 22.4423 2.29467 23.1098 2.83477L38.8062 15.5423M37.6268 22.6245C38.1241 22.6245 38.6011 22.8221 38.9527 23.1737C39.3043 23.5254 39.5019 24.0023 39.5019 24.4996V28.2498C39.5019 28.7471 39.3043 29.2241 38.9527 29.5757C38.6011 29.9274 38.1241 30.1249 37.6268 30.1249H27.7826M37.6268 22.6245C38.6624 22.6245 39.5019 21.785 39.5019 20.7494V16.9992C39.5019 15.9637 38.6624 15.1241 37.6268 15.1241H3.8751C2.83951 15.1241 2 15.9637 2 16.9992V20.7494C2 21.785 2.83951 22.6245 3.8751 22.6245M37.6268 22.6245H3.8751M3.8751 22.6245C3.37779 22.6245 2.90085 22.8221 2.5492 23.1737C2.19755 23.5254 2 24.0023 2 24.4996V28.2498C2 28.7471 2.19755 29.2241 2.5492 29.5757C2.90085 29.9274 3.37779 30.1249 3.8751 30.1249H20.751M10.7567 22.6245L22.251 31.25C22.645 31.5455 23.0933 31.7604 23.5704 31.8827C24.0475 32.0049 24.544 32.032 25.0315 31.9623C25.519 31.8927 25.9881 31.7277 26.4118 31.4768C26.8356 31.2258 27.2058 30.8939 27.5013 30.4999L33.4078 22.6245" stroke="#E64537" stroke-width="4" stroke-linecap="round" stroke-linejoin="round"/>
</svg>
