<svg width="34" height="34" viewBox="0 0 34 34" fill="none" xmlns="http://www.w3.org/2000/svg">
<path d="M2 9.5L8.615 2.885C8.89409 2.60425 9.22598 2.38151 9.59155 2.22962C9.95712 2.07773 10.3491 1.99969 10.745 2H23.255C23.6509 1.99969 24.0429 2.07773 24.4084 2.22962C24.774 2.38151 25.1059 2.60425 25.385 2.885L32 9.5" fill="#F9BF2E" fill-opacity="0.9"/>
<path d="M5 17V29C5 29.7957 5.31607 30.5587 5.87868 31.1213C6.44129 31.6839 7.20435 32 8 32H26C26.7956 32 27.5587 31.6839 28.1213 31.1213C28.6839 30.5587 29 29.7957 29 29V17" fill="#F9BF2E" fill-opacity="0.9"/>
<path d="M21.5 32V26C21.5 25.2044 21.1839 24.4413 20.6213 23.8787C20.0587 23.3161 19.2956 23 18.5 23H15.5C14.7043 23 13.9413 23.3161 13.3787 23.8787C12.8161 24.4413 12.5 25.2044 12.5 26V32" fill="#F9BF2E" fill-opacity="0.9"/>
<path d="M2 9.5H32H2Z" fill="#F9BF2E" fill-opacity="0.9"/>
<path d="M32 9.5V14C32 14.7956 31.6839 15.5587 31.1213 16.1213C30.5587 16.6839 29.7956 17 29 17C28.1236 16.9518 27.2866 16.6201 26.615 16.055C26.436 15.9257 26.2208 15.856 26 15.856C25.7792 15.856 25.564 15.9257 25.385 16.055C24.7134 16.6201 23.8764 16.9518 23 17C22.1236 16.9518 21.2866 16.6201 20.615 16.055C20.436 15.9257 20.2208 15.856 20 15.856C19.7792 15.856 19.564 15.9257 19.385 16.055C18.7134 16.6201 17.8764 16.9518 17 17C16.1236 16.9518 15.2866 16.6201 14.615 16.055C14.436 15.9257 14.2208 15.856 14 15.856C13.7792 15.856 13.564 15.9257 13.385 16.055C12.7134 16.6201 11.8764 16.9518 11 17C10.1236 16.9518 9.28659 16.6201 8.615 16.055C8.43602 15.9257 8.22082 15.856 8 15.856C7.77918 15.856 7.56398 15.9257 7.385 16.055C6.7134 16.6201 5.8764 16.9518 5 17C4.20435 17 3.44129 16.6839 2.87868 16.1213C2.31607 15.5587 2 14.7956 2 14V9.5" fill="#F9BF2E" fill-opacity="0.9"/>
<path d="M2 9.5L8.615 2.885C8.89409 2.60425 9.22598 2.38151 9.59155 2.22962C9.95712 2.07773 10.3491 1.99969 10.745 2H23.255C23.6509 1.99969 24.0429 2.07773 24.4084 2.22962C24.774 2.38151 25.1059 2.60425 25.385 2.885L32 9.5M2 9.5H32M2 9.5V14C2 14.7956 2.31607 15.5587 2.87868 16.1213C3.44129 16.6839 4.20435 17 5 17M32 9.5V14C32 14.7956 31.6839 15.5587 31.1213 16.1213C30.5587 16.6839 29.7956 17 29 17M5 17V29C5 29.7957 5.31607 30.5587 5.87868 31.1213C6.44129 31.6839 7.20435 32 8 32H26C26.7956 32 27.5587 31.6839 28.1213 31.1213C28.6839 30.5587 29 29.7957 29 29V17M5 17C5.8764 16.9518 6.7134 16.6201 7.385 16.055C7.56398 15.9257 7.77918 15.856 8 15.856C8.22082 15.856 8.43602 15.9257 8.615 16.055C9.28659 16.6201 10.1236 16.9518 11 17C11.8764 16.9518 12.7134 16.6201 13.385 16.055C13.564 15.9257 13.7792 15.856 14 15.856C14.2208 15.856 14.436 15.9257 14.615 16.055C15.2866 16.6201 16.1236 16.9518 17 17C17.8764 16.9518 18.7134 16.6201 19.385 16.055C19.564 15.9257 19.7792 15.856 20 15.856C20.2208 15.856 20.436 15.9257 20.615 16.055C21.2866 16.6201 22.1236 16.9518 23 17C23.8764 16.9518 24.7134 16.6201 25.385 16.055C25.564 15.9257 25.7792 15.856 26 15.856C26.2208 15.856 26.436 15.9257 26.615 16.055C27.2866 16.6201 28.1236 16.9518 29 17M21.5 32V26C21.5 25.2044 21.1839 24.4413 20.6213 23.8787C20.0587 23.3161 19.2956 23 18.5 23H15.5C14.7043 23 13.9413 23.3161 13.3787 23.8787C12.8161 24.4413 12.5 25.2044 12.5 26V32" stroke="#E64537" stroke-width="4" stroke-linecap="round" stroke-linejoin="round"/>
</svg>
