<svg width="44" height="46" viewBox="0 0 44 46" fill="none" xmlns="http://www.w3.org/2000/svg">
<path d="M28.2639 43V26.1574C28.2639 25.5991 28.042 25.0636 27.6472 24.6687C27.2524 24.2739 26.7169 24.0521 26.1585 24.0521H17.7372C17.1789 24.0521 16.6434 24.2739 16.2486 24.6687C15.8537 25.0636 15.6319 25.5991 15.6319 26.1574V43M3 19.8415C2.99985 19.229 3.13334 18.6238 3.39114 18.0682C3.64895 17.5126 4.02487 17.0199 4.49267 16.6245L19.2299 3.99472C19.9899 3.35241 20.9528 3 21.9479 3C22.943 3 23.9059 3.35241 24.6659 3.99472L39.4031 16.6245C39.8709 17.0199 40.2468 17.5126 40.5046 18.0682C40.7624 18.6238 40.8959 19.229 40.8958 19.8415V38.7894C40.8958 39.9061 40.4522 40.9771 39.6625 41.7667C38.8729 42.5564 37.8019 43 36.6851 43H7.21064C6.09391 43 5.02292 42.5564 4.23327 41.7667C3.44362 40.9771 3 39.9061 3 38.7894V19.8415Z" stroke="#521514" stroke-width="6" stroke-linecap="round" stroke-linejoin="round"/>
</svg>
